<svg width="27" height="34" viewBox="0 0 27 34" fill="none" xmlns="http://www.w3.org/2000/svg">
<path d="M3.33333 0C2.44928 0 1.60143 0.351189 0.976311 0.976311C0.351189 1.60143 0 2.44928 0 3.33333V30C0 30.8841 0.351189 31.7319 0.976311 32.357C1.60143 32.9821 2.44928 33.3333 3.33333 33.3333H23.3333C24.2174 33.3333 25.0652 32.9821 25.6904 32.357C26.3155 31.7319 26.6667 30.8841 26.6667 30V10L16.6667 0H3.33333ZM3.33333 3.33333H15V11.6667H23.3333V30H3.33333V3.33333ZM6.66667 16.6667V20H20V16.6667H6.66667ZM6.66667 23.3333V26.6667H15V23.3333H6.66667Z" fill="white"/>
</svg>
