<svg width="34" height="34" viewBox="0 0 34 34" fill="none" xmlns="http://www.w3.org/2000/svg">
<path d="M17 0.333374C7.83333 0.333374 0.333328 7.83337 0.333328 17C0.333328 26.1667 7.83333 33.6667 17 33.6667C26.1667 33.6667 33.6667 26.1667 33.6667 17C33.6667 7.83337 26.1667 0.333374 17 0.333374ZM17 30.3334C9.64999 30.3334 3.66666 24.35 3.66666 17C3.66666 9.65004 9.64999 3.66671 17 3.66671C24.35 3.66671 30.3333 9.65004 30.3333 17C30.3333 24.35 24.35 30.3334 17 30.3334ZM24.65 9.63337L13.6667 20.6167L9.34999 16.3167L6.99999 18.6667L13.6667 25.3334L27 12L24.65 9.63337Z" fill="white"/>
</svg>
