<svg width="38" height="26" viewBox="0 0 38 26" fill="none" xmlns="http://www.w3.org/2000/svg">
<path d="M19 8C17.6739 8 16.4021 8.52678 15.4644 9.46447C14.5267 10.4021 14 11.6739 14 13C14 14.3261 14.5267 15.5979 15.4644 16.5355C16.4021 17.4732 17.6739 18 19 18C20.326 18 21.5978 17.4732 22.5355 16.5355C23.4732 15.5979 24 14.3261 24 13C24 11.6739 23.4732 10.4021 22.5355 9.46447C21.5978 8.52678 20.326 8 19 8ZM19 21.3333C16.7898 21.3333 14.6702 20.4554 13.1074 18.8926C11.5446 17.3298 10.6666 15.2101 10.6666 13C10.6666 10.7899 11.5446 8.67025 13.1074 7.10744C14.6702 5.54464 16.7898 4.66667 19 4.66667C21.2101 4.66667 23.3297 5.54464 24.8925 7.10744C26.4553 8.67025 27.3333 10.7899 27.3333 13C27.3333 15.2101 26.4553 17.3298 24.8925 18.8926C23.3297 20.4554 21.2101 21.3333 19 21.3333ZM19 0.5C10.6666 0.5 3.54996 5.68333 0.666626 13C3.54996 20.3167 10.6666 25.5 19 25.5C27.3333 25.5 34.45 20.3167 37.3333 13C34.45 5.68333 27.3333 0.5 19 0.5Z" fill="white"/>
</svg>
