<svg width="34" height="33" viewBox="0 0 34 33" fill="none" xmlns="http://www.w3.org/2000/svg">
<path d="M13.8672 0.260498H20.551C21.4374 0.260498 22.2874 0.612592 22.9141 1.23932C23.5409 1.86606 23.893 2.71609 23.893 3.60242V6.94434H30.5768C31.4631 6.94434 32.3132 7.29644 32.9399 7.92317C33.5666 8.5499 33.9187 9.39993 33.9187 10.2863V28.6668C33.9187 29.5532 33.5666 30.4032 32.9399 31.0299C32.3132 31.6567 31.4631 32.0088 30.5768 32.0088H3.84143C1.98667 32.0088 0.499512 30.5049 0.499512 28.6668V10.2863C0.499512 8.4315 1.98667 6.94434 3.84143 6.94434H10.5253V3.60242C10.5253 1.74765 12.0124 0.260498 13.8672 0.260498ZM20.551 6.94434V3.60242H13.8672V6.94434H20.551Z" fill="white"/>
</svg>
