<svg width="34" height="30" viewBox="0 0 34 30" fill="none" xmlns="http://www.w3.org/2000/svg">
<path d="M16.9645 12.1492C20.1008 12.1492 22.6432 9.60682 22.6432 6.47059C22.6432 3.33435 20.1008 0.791931 16.9645 0.791931C13.8283 0.791931 11.2859 3.33435 11.2859 6.47059C11.2859 9.60682 13.8283 12.1492 16.9645 12.1492Z" fill="#F0F0F0"/>
<path d="M28.4524 12.1492C30.4351 12.1492 32.0423 10.5419 32.0423 8.55926C32.0423 6.57658 30.4351 4.9693 28.4524 4.9693C26.4697 4.9693 24.8624 6.57658 24.8624 8.55926C24.8624 10.5419 26.4697 12.1492 28.4524 12.1492Z" fill="#F0F0F0"/>
<path d="M5.47667 12.1492C7.45935 12.1492 9.06663 10.5419 9.06663 8.55926C9.06663 6.57658 7.45935 4.9693 5.47667 4.9693C3.494 4.9693 1.88672 6.57658 1.88672 8.55926C1.88672 10.5419 3.494 12.1492 5.47667 12.1492Z" fill="#F0F0F0"/>
<path d="M9.01378 15.373C7.60065 14.2152 6.32086 14.3685 4.68691 14.3685C2.24313 14.3685 0.254944 16.3449 0.254944 18.7737V25.902C0.254944 26.9568 1.11588 27.8145 2.17459 27.8145C6.74532 27.8145 6.19469 27.8972 6.19469 27.6174C6.19469 22.5662 5.59641 18.862 9.01378 15.373Z" fill="#F0F0F0"/>
<path d="M18.5186 14.3946C15.6647 14.1565 13.184 14.3973 11.0443 16.1635C7.4637 19.0315 8.15277 22.8932 8.15277 27.6174C8.15277 28.8673 9.16971 29.9032 10.4386 29.9032C24.2163 29.9032 24.7647 30.3476 25.5817 28.5384C25.8496 27.9265 25.7762 28.1209 25.7762 22.2677C25.7762 17.6186 21.7507 14.3946 18.5186 14.3946Z" fill="#F0F0F0"/>
<path d="M29.2421 14.3685C27.5992 14.3685 26.3265 14.2168 24.9152 15.373C28.3071 18.8361 27.7343 22.2876 27.7343 27.6174C27.7343 27.899 27.2772 27.8145 31.6859 27.8145C32.7824 27.8145 33.6741 26.9261 33.6741 25.8341V18.7737C33.6741 16.3449 31.6859 14.3685 29.2421 14.3685Z" fill="#F0F0F0"/>
</svg>
