<svg width="34" height="33" viewBox="0 0 34 33" fill="none" xmlns="http://www.w3.org/2000/svg">
<path d="M3.59558 0.26062C1.74082 0.26062 0.253662 1.74778 0.253662 3.60254V20.3122C0.253662 21.1985 0.605756 22.0485 1.23249 22.6752C1.85922 23.302 2.70925 23.6541 3.59558 23.6541H16.9633V32.0089L21.9762 26.996L26.989 32.0089V23.6541H30.331C31.2173 23.6541 32.0673 23.302 32.6941 22.6752C33.3208 22.0485 33.6729 21.1985 33.6729 20.3122V8.61543V5.2735V3.60254C33.6729 2.71621 33.3208 1.86618 32.6941 1.23945C32.0673 0.612714 31.2173 0.26062 30.331 0.26062H23.6471H3.59558ZM16.9633 3.60254L21.9762 6.94446L26.989 3.60254V9.45091L32.0019 11.9573L26.989 14.4638V20.3122L21.9762 16.9702L16.9633 20.3122V14.4638L11.9504 11.9573L16.9633 9.45091V3.60254ZM3.59558 3.60254H11.9504V6.94446H3.59558V3.60254ZM3.59558 10.2864H8.60847V13.6283H3.59558V10.2864ZM3.59558 16.9702H11.9504V20.3122H3.59558V16.9702Z" fill="white"/>
</svg>
