<svg width="52" height="52" viewBox="0 0 52 52" fill="none" xmlns="http://www.w3.org/2000/svg">
<path d="M49.8103 18.1544C52.8541 15.1105 51.4661 11.5553 49.8103 9.82642L42.5051 2.52121C39.4369 -0.522632 35.906 0.865358 34.1771 2.52121L30.0375 6.68518H23.7307C19.104 6.68518 16.4255 9.12025 15.0618 11.9206L4.25011 22.7323V32.4726L2.52121 34.1771C-0.522632 37.2453 0.865358 40.7762 2.52121 42.5051L9.82642 49.8103C11.1414 51.1252 12.5537 51.6122 13.893 51.6122C15.6219 51.6122 17.2047 50.7599 18.1544 49.8103L24.729 43.2112H33.4709C37.6106 43.2112 39.7047 40.6301 40.4596 38.0976C43.2112 37.3671 44.721 35.2729 45.3297 33.2274C49.1041 32.2534 50.5164 28.6739 50.5164 26.1657V18.8605H49.0797L49.8103 18.1544ZM45.6463 26.1657C45.6463 27.2615 45.1836 28.6008 43.2112 28.6008H40.7762V31.0359C40.7762 32.1317 40.3135 33.4709 38.3411 33.4709H35.906V35.906C35.906 37.0018 35.4434 38.3411 33.4709 38.3411H22.7323L14.7453 46.3281C13.9904 47.0343 13.5521 46.6203 13.2842 46.3525L6.00336 39.096C5.29719 38.3411 5.71115 37.9028 5.979 37.6349L9.12024 34.4693V24.729L13.9904 19.8589V23.7307C13.9904 26.6771 15.9384 31.0359 21.2956 31.0359C26.6527 31.0359 28.6008 26.6771 28.6008 23.7307H45.6463V26.1657ZM46.3525 14.6966L42.2128 18.8605H23.7307V23.7307C23.7307 24.8264 23.268 26.1657 21.2956 26.1657C19.3232 26.1657 18.8605 24.8264 18.8605 23.7307V16.4255C18.8605 15.3053 19.2745 11.5553 23.7307 11.5553H32.0343L37.5862 6.00336C38.3411 5.29719 38.7794 5.71115 39.0473 5.97901L46.3281 13.2355C47.0343 13.9904 46.6203 14.4287 46.3525 14.6966Z" fill="white"/>
</svg>
