<svg width="40" height="40" viewBox="0 0 40 40" fill="none" xmlns="http://www.w3.org/2000/svg">
<path d="M19.5807 0.685059C22.164 0.685059 24.6415 1.71126 26.4681 3.53792C28.2948 5.36458 29.321 7.84205 29.321 10.4253C29.321 13.0086 28.2948 15.4861 26.4681 17.3128C24.6415 19.1394 22.164 20.1656 19.5807 20.1656C16.9974 20.1656 14.52 19.1394 12.6933 17.3128C10.8666 15.4861 9.84044 13.0086 9.84044 10.4253C9.84044 7.84205 10.8666 5.36458 12.6933 3.53792C14.52 1.71126 16.9974 0.685059 19.5807 0.685059ZM19.5807 25.0358C30.3437 25.0358 39.0613 29.3945 39.0613 34.776V39.6462H0.100159V34.776C0.100159 29.3945 8.81771 25.0358 19.5807 25.0358Z" fill="white"/>
</svg>
