<svg width="81" height="81" viewBox="0 0 81 81" fill="none" xmlns="http://www.w3.org/2000/svg">
<g clip-path="url(#clip0_31_166)">
<path d="M77.3657 67.7947L68.2398 48.2249C63.2009 55.5619 55.3332 60.7865 46.2258 62.3707L53.8652 78.7525C54.8419 80.8487 57.8646 80.7088 58.6512 78.5441L62.5667 67.7882L63.3737 67.4119L74.1298 71.3275C76.2881 72.1195 78.3411 69.8826 77.3657 67.7947Z" fill="white"/>
<path d="M40.443 0.672119C24.7164 0.672119 11.9203 13.4674 11.9203 29.1948C11.9203 44.9223 24.7165 57.7175 40.443 57.7175C56.1697 57.7175 68.9657 44.9223 68.9657 29.1948C68.9657 13.4674 56.1699 0.672119 40.443 0.672119ZM54.3214 27.0991L49.2638 32.0294L50.459 38.993C50.8244 41.119 48.5843 42.7163 46.696 41.7261L40.4432 38.4392L34.1904 41.726C32.2912 42.7232 30.064 41.1071 30.4274 38.9929L31.6226 32.0293L26.565 27.0989C25.0278 25.6003 25.881 22.9844 28.0019 22.6762L34.9923 21.6608L38.1188 15.3268C39.0649 13.4033 41.8209 13.4016 42.768 15.3268L45.8945 21.6608L52.885 22.6762C55.0056 22.9842 55.8586 25.6003 54.3214 27.0991Z" fill="white"/>
<path d="M12.6463 48.2249L3.52041 67.7947C2.54047 69.8924 4.61195 72.117 6.75648 71.327L17.5124 67.4114L18.3194 67.7877L22.2349 78.5438C23.02 80.704 26.0422 80.8529 27.0209 78.7524L34.6603 62.3706C25.5529 60.7865 17.6854 55.5621 12.6463 48.2249Z" fill="white"/>
</g>
<defs>
<clipPath id="clip0_31_166">
<rect width="79.5768" height="79.5768" fill="white" transform="translate(0.654419 0.672119)"/>
</clipPath>
</defs>
</svg>
