<svg width="41" height="36" viewBox="0 0 41 36" fill="none" xmlns="http://www.w3.org/2000/svg">
<path d="M20.0157 14.1578C23.7705 14.1578 26.8145 11.1139 26.8145 7.35907C26.8145 3.60421 23.7705 0.560303 20.0157 0.560303C16.2608 0.560303 13.2169 3.60421 13.2169 7.35907C13.2169 11.1139 16.2608 14.1578 20.0157 14.1578Z" fill="white"/>
<path d="M33.7695 14.1577C36.1433 14.1577 38.0676 12.2334 38.0676 9.8596C38.0676 7.48584 36.1433 5.56152 33.7695 5.56152C31.3957 5.56152 29.4714 7.48584 29.4714 9.8596C29.4714 12.2334 31.3957 14.1577 33.7695 14.1577Z" fill="white"/>
<path d="M6.26182 14.1577C8.63557 14.1577 10.5599 12.2334 10.5599 9.8596C10.5599 7.48584 8.63557 5.56152 6.26182 5.56152C3.88806 5.56152 1.96375 7.48584 1.96375 9.8596C1.96375 12.2334 3.88806 14.1577 6.26182 14.1577Z" fill="white"/>
<path d="M10.4966 18.0176C8.80477 16.6314 7.27254 16.8149 5.3163 16.8149C2.39048 16.8149 0.0101318 19.1812 0.0101318 22.089V30.6234C0.0101318 31.8863 1.04089 32.9131 2.30843 32.9131C7.78073 32.9131 7.12149 33.0122 7.12149 32.6771C7.12149 26.6297 6.40519 22.1948 10.4966 18.0176Z" fill="white"/>
<path d="M21.8763 16.8461C18.4594 16.5611 15.4895 16.8494 12.9277 18.9639C8.64083 22.3977 9.46582 27.0211 9.46582 32.6771C9.46582 34.1735 10.6833 35.4138 12.2025 35.4138C28.6979 35.4138 29.3544 35.9459 30.3326 33.7797C30.6534 33.0472 30.5654 33.28 30.5654 26.2722C30.5654 20.7061 25.7459 16.8461 21.8763 16.8461Z" fill="white"/>
<path d="M34.715 16.8147C32.7481 16.8147 31.2243 16.6331 29.5347 18.0174C33.5956 22.1636 32.9098 26.2959 32.9098 32.6769C32.9098 33.0141 32.3626 32.9129 37.6408 32.9129C38.9537 32.9129 40.0212 31.8494 40.0212 30.542V22.0888C40.0212 19.181 37.6408 16.8147 34.715 16.8147Z" fill="white"/>
</svg>
