<svg width="41" height="39" viewBox="0 0 41 39" fill="none" xmlns="http://www.w3.org/2000/svg">
<path d="M16.0151 0.010498H24.0173C25.0785 0.010498 26.0962 0.432042 26.8465 1.1824C27.5969 1.93275 28.0184 2.95045 28.0184 4.01161V8.01272H36.0206C37.0818 8.01272 38.0995 8.43427 38.8498 9.18462C39.6002 9.93498 40.0218 10.9527 40.0218 12.0138V34.02C40.0218 35.0811 39.6002 36.0988 38.8498 36.8492C38.0995 37.5995 37.0818 38.0211 36.0206 38.0211H4.01173C1.79112 38.0211 0.0106201 36.2206 0.0106201 34.02V12.0138C0.0106201 9.79322 1.79112 8.01272 4.01173 8.01272H12.014V4.01161C12.014 1.79099 13.7945 0.010498 16.0151 0.010498ZM24.0173 8.01272V4.01161H16.0151V8.01272H24.0173Z" fill="white"/>
</svg>
